# xmcd
#
# Track frame offsets:
#	150
#	16286
#	32598
#	46670
#	61856
#	79437
#	91188
#	102758
#	121862
#	159171
#	176108
#	189163
#	199427
#	217586
#	224811
#	237147
#	249266
#	258285
#
# Disc length: 3800 seconds
#
# Revision: 0
# Processed by: cddbd v1.5.2PL0 Copyright (c) Steve Scherf et al.
# Submitted via: EasyCDDAExtractor 12.0.7.1
#
DISCID=e30ed612
DTITLE=Владимир Высоцкий - Аллея шансона
DYEAR=2011
DGENRE=Chanson
TTITLE0=Дорожная история
TTITLE1=Ой, где был я вчера
TTITLE2=Мне ребята сказали про такую наколку
TTITLE3=Очи черные. Погоня
TTITLE4=Песня про стукача
TTITLE5=У нас вчера, с позавчера
TTITLE6=Я любил и женщин и проказы
TTITLE7=Милицейский протокол
TTITLE8=Банька по-белому
TTITLE9=Случай на шахте
TTITLE10=Песня про уголовный кодекс
TTITLE11=Вот раньше жизнь
TTITLE12=Тот, кто раньше с нею был
TTITLE13=Правда ведь обидно
TTITLE14=Весна еще в начале
TTITLE15=Рецидивист
TTITLE16=Красное, зеленое
TTITLE17=Райские яблоки
EXTD=
EXTT0=
EXTT1=
EXTT2=
EXTT3=
EXTT4=
EXTT5=
EXTT6=
EXTT7=
EXTT8=
EXTT9=
EXTT10=
EXTT11=
EXTT12=
EXTT13=
EXTT14=
EXTT15=
EXTT16=
EXTT17=
PLAYORDER=
